<svg width="667" height="667" viewBox="0 0 667 667" fill="none" xmlns="http://www.w3.org/2000/svg">
<g clip-path="url(#clip0_11_2)">
<path d="M666.667 667H0V0.333374H666.667V667Z" fill="white"/>
<path d="M246.719 339.622C257.137 339.048 292.135 340.995 328.653 341.711C334.017 341.817 440.751 342.736 442.405 340.62C441.891 340.535 367.343 338.442 367.332 338.442C248.764 336.105 230.074 340.542 246.719 339.622ZM468.919 325.7C468.919 325.817 469.077 325.783 467.879 325.783L468.919 325.7ZM188.283 318.491H187.659C187.915 318.298 188.028 318.298 188.283 318.491ZM292.365 311.233C281.519 312.382 278.799 317.225 262.003 317.816C250.431 318.224 246.135 315.162 240.271 314.575C232.326 313.778 226.531 316.48 218.748 317.532C214.272 318.138 206.982 317.632 207.32 321.341C207.872 327.43 232.517 324.624 244.535 325.288C252.96 325.753 275.764 328.478 305.153 321.711C306.85 321.321 309.335 320.945 310.539 319.831C312.012 318.464 310.926 316.159 309.105 315.421C307.506 314.772 305.655 314.482 304.01 313.892C300.266 312.547 296.662 310.778 292.365 311.233ZM193.065 293.211C186.208 293.913 187.013 300.34 189.681 303.904C195.05 311.08 211.437 312.994 222.907 311.845C228.484 311.285 234.21 310.223 239.856 310.535C245.775 310.861 251.143 312.733 256.908 313.646C274.514 316.428 288.514 306.233 298.083 306.762C305.21 307.156 309.99 312.226 316.799 313.526C324.697 315.031 330.642 312.123 336.139 314.119C341.033 315.898 343.597 320.946 354.127 322.644C367.015 324.722 374.799 319.528 381.577 319.007C385.657 318.694 389.486 320.598 393.223 321.592C398.614 323.027 411.292 323.422 417.346 321.47C420.436 320.474 423.119 318.345 426.496 318.012C430.805 317.585 435.274 319.075 439.597 319.16C467.116 319.703 481.742 301.335 469.231 300.643C461.073 300.189 450.974 306.485 438.661 309.174C414.291 314.495 406.177 310.309 398.11 309.864C393.064 309.586 388.517 311.518 383.553 311.616C374.86 311.787 357.981 309.415 350.801 308.144C331.21 304.675 303.868 295.333 289.037 294.195C274.934 293.113 267.756 299.613 243.599 298.281C229.947 297.527 216.368 295.901 202.735 295.095C199.482 294.903 196.405 292.865 193.065 293.211ZM262.939 267.813C262.576 267.848 262.222 267.913 261.899 268.056C259.103 269.298 261.63 272.19 262.71 273.643C273.994 288.839 292.137 290.595 308.585 293.732C332.986 298.388 358.239 308.337 363.069 306.761C366.434 305.662 363.501 302.644 362.176 301.306C356.694 295.778 349.825 291.922 342.17 288.035C319.015 276.275 294.926 272.251 268.866 268.593C267.063 268.34 264.761 267.636 262.939 267.813ZM196.601 258.339C191.818 258.864 190.122 262.923 188.654 266.099C186.227 271.35 185.24 277.583 187.154 283.032C189.492 289.692 194.2 291.976 202.007 292.85C209.581 293.7 235.582 294.265 243.703 294.265C249.94 294.265 262.069 294.346 269.282 291.601C272.34 290.437 276.117 288.27 274.357 285.127C273.744 284.032 272.772 283.9 271.673 283.318C271.123 283.027 263.64 277.089 257.012 272.924C243.37 264.359 228.989 265.617 213.341 262.463C203.473 260.474 200.106 257.953 196.601 258.339ZM430.967 273.056C433.643 269.347 431.05 265.761 426.6 264.113C424.488 263.332 422.248 262.807 420.049 262.215C403.091 257.658 400.396 261.529 393.951 261.404C392.993 261.385 391.554 261.197 391 260.481C390.548 259.899 391.365 258.728 391.574 258.136C392.236 256.26 392.427 254.074 390.104 252.852C385.411 250.383 378.731 255.563 376.623 253.833C375.579 252.977 376.073 250.934 376.067 249.837C376.05 247.123 374.383 244.085 370.868 243.373C364.043 241.99 357.785 248.729 354.44 246.848C351.399 245.135 360.158 239.82 352.256 233.917C349.26 231.679 345.275 231.442 341.962 233.299C340.246 234.263 337.008 236.69 334.683 235.831C331.411 234.621 336.95 228.905 332.292 225.541C325.124 220.367 303.984 229.794 298.544 236.844C296.472 239.526 296.02 243.296 300.371 244.655C308.309 247.136 319.02 240.612 325.533 239.97C325.906 239.932 327.184 240.108 327.387 239.811C327.643 239.434 326.56 239.033 326.261 238.929C320.388 236.896 307.945 242.215 302.763 241.314C298.359 240.554 309.403 231.278 322.206 228.366C332.109 226.113 329.482 230.572 329.112 232.485C327.919 238.693 334.042 242.01 342.17 237.792C344.083 236.798 345.84 235.076 348.201 236.211C349.36 236.768 350.73 237.815 350.974 238.939C351.506 241.389 346.63 245.93 350.726 249.319C358.272 255.562 370.317 241.037 371.406 249.837C371.705 252.261 370.922 254.817 373.468 256.696C377.951 260.004 382.668 255.956 387.401 255.956C387.292 257.861 385.679 259.495 386.406 261.488C387.225 263.73 390.359 265.037 393.119 265.092C397.123 265.171 400.729 264.068 404.661 263.766C409.832 263.37 419.759 265.597 424.625 267.545C426.074 268.126 427.843 268.944 427.282 270.458C426.167 273.481 424.94 272.838 423.065 272.661C394.306 269.926 394.219 270.844 358.079 255.471C325.897 241.782 317.394 246.833 304.634 247.81C301.651 248.04 298.558 247.746 295.588 247.581C277.641 246.591 273.061 248.518 262.835 248.157C246.331 247.574 232.024 241.46 222.309 231.981C217.947 227.724 215.709 221.504 209.806 221.504C209.46 220.599 204.174 219.024 196.884 232.652C193.935 238.166 191.385 245.939 196.649 251.094C200.903 255.258 208.309 256.377 214.486 257.519C221.887 258.889 229.105 260.796 236.528 262.11C255.284 265.431 274.535 266.249 293.3 269.572C314.695 273.36 347.924 284.26 361.153 296.78C368.01 303.268 367.54 307.125 369.832 308.739C370.715 309.361 371.617 309.181 372.635 309.407C374.122 309.737 375.451 310.222 377.002 310.407C384.656 311.321 392.023 308.353 399.565 307.936C406.615 307.547 413.358 309.766 420.465 308.995C430.925 307.859 459.155 298.546 468.815 295.222C476.664 292.522 483.875 289.325 489.52 284.038C491.767 281.933 494.424 279.021 493.843 276.075C492.58 269.671 479.11 274.789 441.989 273.479C438.394 273.353 434.507 273.586 430.967 273.056ZM499.8 301.223C500.754 299.441 502.287 298.459 505.291 292.085C505.805 290.995 506.79 289.32 506.454 288.146C504.701 289.563 503.482 291.385 502.044 293.007C500.882 294.317 493.702 301.7 492.106 302.648C492.925 301.116 497.322 295.354 496.993 293.594C491.589 298.977 494.256 296.594 484.931 304.243C477.817 309.401 478.988 308.759 482.392 305.246C482.807 304.817 489.527 297.864 489.923 296.864C488.267 297.804 489.375 297.434 480.045 303.965C464.284 315.002 457.417 319.588 442.821 322.692C437.787 323.762 434.459 318.496 429.407 319.593C426.041 320.326 424.408 323.204 421.194 324.206C416.695 325.609 405.038 325.854 400.19 325.95C397.612 326 394.284 326.331 392.079 325.035C389.554 323.551 388.191 320.301 384.488 320.51C380.939 320.711 379.044 324.495 374.715 326.093C371.937 327.119 368.868 327.125 365.876 327.125C356.577 327.125 351.415 327.125 347.265 324.618C341.443 321.104 337.207 314.93 328.861 315.571C318.962 316.331 305.962 323.369 291.948 326.67C284.452 328.436 281.87 328.214 233.097 328.214C224.216 328.214 208.56 327.876 208.35 327.82C207.416 327.569 197.117 321.28 193.319 317.653C182.49 307.311 184.103 288.109 184.848 274.398C185.564 261.203 185.006 239.321 196.407 222.845C202.363 214.239 206.52 213.463 216.148 220.658C226.711 228.552 238.049 241.518 255.14 242.121C266.655 242.528 277.839 238.072 287.79 233.932C292.601 231.93 297.441 229.99 302.035 227.671C312.241 222.521 315.161 217.883 322.102 218.416C329.66 218.996 332.527 223.392 344.457 228.355C365.473 237.099 364.418 238.064 375.027 243.314C380.31 245.929 385.963 248 391.351 250.459C399.647 254.245 407.867 258.267 417.034 260.564C466.39 272.932 482.229 260.764 498.761 269.204C502.53 271.13 508.837 276.197 510.465 279.679C513.506 286.173 509.81 292.583 504.496 297.45C503.09 298.737 501.544 300.232 499.8 301.223ZM185.372 314.634C181.144 314.634 174.523 315.239 172.998 315.51C172.8 315.546 172.321 315.63 172.422 315.878C172.518 316.112 172.96 316.125 173.206 316.143C174.118 316.212 182.104 317.16 185.579 318.239C185.579 318.545 164.368 317.775 164.368 319.078C168.616 319.078 172.566 320.318 176.741 320.586C176.741 321.013 149.219 320.421 156.986 321.319C158.699 321.517 180.046 323.353 180.276 323.353C180.276 323.399 144.196 324.416 144.196 325.281C146.377 325.7 148.83 325.457 151.059 325.536C184.802 326.724 182.402 327.544 194.001 327.544C192.861 328.482 190.695 327.08 158.649 328.212C148.993 328.554 126 328.543 126 329.053C127.621 329.682 130.248 329.465 132.03 329.564C180.516 332.257 172.368 331.485 192.754 331.485V331.568C189.692 331.568 186.548 331.99 183.5 332.225C161.283 333.936 159.533 333.271 158.649 333.999C160.891 334.43 163.621 334.206 165.928 334.252C206.883 335.02 203.435 334.251 230.914 334.251C230.914 334.709 231.477 333.435 207.103 336.143C201.551 336.76 199.613 336.695 199.861 337.345C199.978 337.655 200.541 337.679 200.864 337.687C255.117 339.04 221.542 336.598 321.998 336.598C354.735 336.598 383.268 334.84 448.644 338.449C448.653 338.45 473.269 339.616 473.806 339.616C473.806 339.113 438.038 335.485 438.038 335.34C446.228 335.345 454.405 335.719 462.576 336.008C468.997 336.234 475.481 335.866 481.916 335.927C484.961 335.957 503.157 336.765 511.966 336.765C513.481 336.765 516.276 337.329 517.581 336.598C516.552 336.248 520.043 336.826 482.748 333.817C479.489 333.555 476.145 333.077 472.87 333.077V332.993C529.031 332.993 521.326 331.652 537.753 331.652C538.205 331.652 538.716 331.726 539 331.401C535.364 330.857 474.742 329.229 474.742 329.222C526.688 326.627 522.78 327.044 522.78 326.623C515.617 325.889 489.563 325.04 481.5 325.198C477.344 325.281 469.126 325.94 469.126 325.617C474.185 325.617 491.024 323.199 507.807 321.68C508.486 321.62 510.083 321.709 510.51 321.257C479.268 321.619 481.5 321.64 481.5 321.509C485.095 320.892 498.109 318.59 501.464 317.402C492.789 317.402 484.149 318.994 475.47 318.994C478.855 317.402 482.392 316.019 485.763 314.401C510.875 302.347 528.152 284.793 506.143 269.142C491.332 258.607 477.785 263.168 460.601 262.83C443.472 262.491 423.554 258.855 413.291 255.487C406.473 253.25 400.253 250.193 393.847 247.311C388.621 244.959 383.168 242.928 378.042 240.432C365.828 234.486 371.563 235.669 345.602 224.624C337.265 221.078 330.41 214.534 320.334 214.63C315.03 214.682 311.105 217.486 307.234 220.043C299.633 225.062 293.902 227.132 287.269 229.952C256.922 242.862 247.413 239.895 232.37 228.297C220.113 218.85 212.293 210.216 203.048 212.319C193.752 214.434 187.915 228.266 185.282 235.754C181.034 247.838 180.947 260.222 180.273 272.639C179.668 283.779 178.676 295.363 181.8 306.337C182.627 309.242 184.043 311.875 185.372 314.635" fill="#E74C3C"/>
<path d="M133.7 368.5L132.8 381.3V388.8H142.4L151.9 387.8L151.1 395.3H132.8V402.3L134.2 422H123L124.4 402.2V381.2L123 361.5H156.9L156 369.7L144.8 368.5H133.7ZM192.545 423.5C183.679 423.5 176.779 420.767 171.845 415.3C166.912 409.767 164.445 402.1 164.445 392.3C164.445 382.5 167.145 374.667 172.545 368.8C177.945 362.933 185.112 360 194.045 360C202.979 360 209.912 362.733 214.845 368.2C219.779 373.667 222.245 381.3 222.245 391.1C222.245 400.9 219.512 408.767 214.045 414.7C208.645 420.567 201.479 423.5 192.545 423.5ZM174.545 392.3C174.545 400.1 176.312 406.167 179.845 410.5C183.379 414.767 188.345 416.9 194.745 416.9C198.545 416.9 202.245 416.133 205.845 414.6C207.579 412.867 209.045 409.767 210.245 405.3C211.512 400.767 212.145 396.133 212.145 391.4C212.145 383.333 210.379 377.2 206.845 373C203.379 368.733 198.312 366.6 191.645 366.6C187.845 366.6 184.245 367.367 180.845 368.9C179.112 370.567 177.612 373.7 176.345 378.3C175.145 382.9 174.545 387.567 174.545 392.3ZM261.393 423.5C252.526 423.5 245.626 420.767 240.693 415.3C235.76 409.767 233.293 402.1 233.293 392.3C233.293 382.5 235.993 374.667 241.393 368.8C246.793 362.933 253.96 360 262.893 360C271.826 360 278.76 362.733 283.693 368.2C288.626 373.667 291.093 381.3 291.093 391.1C291.093 400.9 288.36 408.767 282.893 414.7C277.493 420.567 270.326 423.5 261.393 423.5ZM243.393 392.3C243.393 400.1 245.16 406.167 248.693 410.5C252.226 414.767 257.193 416.9 263.593 416.9C267.393 416.9 271.093 416.133 274.693 414.6C276.426 412.867 277.893 409.767 279.093 405.3C280.36 400.767 280.993 396.133 280.993 391.4C280.993 383.333 279.226 377.2 275.693 373C272.226 368.733 267.16 366.6 260.493 366.6C256.693 366.6 253.093 367.367 249.693 368.9C247.96 370.567 246.46 373.7 245.193 378.3C243.993 382.9 243.393 387.567 243.393 392.3ZM298.641 369.1L299.141 361.5H333.641L344.541 360.3L343.541 369.1L332.441 368.5H325.941L325.041 381.3V402.3L326.441 422H315.241L316.641 402.2V381.2L315.641 368.5H309.641L298.641 369.1ZM388.984 422.5L367.684 361.8L379.284 360.9L380.884 373.6L393.084 412L406.184 374L407.384 361.5H419.484L396.584 421.9L388.984 422.5ZM428.969 422L430.369 402.2V381.2L428.969 361.5H440.169L438.769 381.3V402.3L440.169 422H428.969ZM457.091 422L458.491 402.2V375.3L456.691 362.1L457.591 362C464.858 360.667 470.691 360 475.091 360C487.825 360 494.191 365.267 494.191 375.8C494.191 382.067 491.791 386.733 486.991 389.8C494.591 392.2 498.391 397.3 498.391 405.1C498.391 410.7 496.058 415.167 491.391 418.5C486.791 421.833 480.558 423.5 472.691 423.5C466.825 423.5 461.625 423 457.091 422ZM467.991 416.8C470.391 417.2 473.025 417.4 475.891 417.4C478.825 417.4 482.091 416.867 485.691 415.8C488.025 413.133 489.191 409.8 489.191 405.8C489.191 401.8 488.025 398.867 485.691 397C483.358 395.133 479.691 394.2 474.691 394.2H466.891V402.3L467.791 415.4L467.991 416.8ZM466.891 381.3V388.4H471.491C480.491 388.333 484.991 384.467 484.991 376.8C484.991 369.6 481.225 366 473.691 366C471.958 366 470.025 366.167 467.891 366.5L466.891 381.3ZM521.179 381.3V387.6H530.779L540.279 386.6L539.479 394.1H521.179V402.3L522.079 415H535.279L546.179 413.8L545.179 422.6L534.279 422H522.579L511.379 422.6L512.779 402.2V381.2L511.379 361.5H545.279L544.379 369.7L533.179 368.5H522.079L521.179 381.3Z" fill="#E74C3C"/>
</g>
<defs>
<clipPath id="clip0_11_2">
<rect width="666.667" height="666.667" fill="white"/>
</clipPath>
</defs>
</svg>
