<svg width="437" height="233" viewBox="0 0 437 233" fill="none" xmlns="http://www.w3.org/2000/svg">
<path d="M131.719 127.622C142.137 127.048 177.135 128.995 213.653 129.711C219.017 129.817 325.751 130.736 327.405 128.62C326.891 128.535 252.343 126.442 252.332 126.442C133.764 124.105 115.074 128.542 131.719 127.622ZM353.919 113.7C353.919 113.817 354.077 113.783 352.879 113.783L353.919 113.7ZM73.2828 106.491H72.6585C72.9146 106.298 73.0279 106.298 73.2828 106.491ZM177.365 99.2332C166.519 100.382 163.799 105.225 147.003 105.816C135.431 106.224 131.135 103.162 125.271 102.575C117.326 101.778 111.531 104.48 103.748 105.532C99.2723 106.138 91.9822 105.632 92.3197 109.341C92.8719 115.43 117.517 112.624 129.535 113.288C137.96 113.753 160.764 116.478 190.153 109.711C191.85 109.321 194.335 108.945 195.539 107.831C197.012 106.464 195.926 104.159 194.105 103.421C192.506 102.772 190.655 102.482 189.01 101.892C185.266 100.547 181.662 98.7785 177.365 99.2332ZM78.0653 81.2106C71.2083 81.9127 72.0131 88.3397 74.6811 91.9043C80.0501 99.08 96.4367 100.994 107.907 99.8449C113.484 99.2846 119.21 98.2229 124.856 98.535C130.775 98.8613 136.143 100.733 141.908 101.646C159.514 104.428 173.514 94.2331 183.083 94.762C190.21 95.1559 194.99 100.226 201.799 101.526C209.697 103.031 215.642 100.123 221.139 102.119C226.033 103.898 228.597 108.946 239.127 110.644C252.015 112.722 259.799 107.528 266.577 107.007C270.657 106.694 274.486 108.598 278.223 109.592C283.614 111.027 296.292 111.422 302.346 109.47C305.436 108.474 308.119 106.345 311.496 106.012C315.805 105.585 320.274 107.075 324.597 107.16C352.116 107.703 366.742 89.3348 354.231 88.6432C346.073 88.1895 335.974 94.4852 323.661 97.1736C299.291 102.495 291.177 98.3085 283.11 97.8643C278.064 97.5855 273.517 99.5176 268.553 99.6156C259.86 99.7869 242.981 97.4152 235.801 96.1443C216.21 92.6749 188.868 83.333 174.037 82.1952C159.934 81.1126 152.756 87.6129 128.599 86.2811C114.947 85.5267 101.368 83.9009 87.7354 83.0952C84.4821 82.903 81.4047 80.8653 78.0653 81.2106ZM147.939 55.8125C147.576 55.8477 147.222 55.9134 146.899 56.0561C144.103 57.2985 146.63 60.1895 147.71 61.6431C158.994 76.8394 177.137 78.5945 193.585 81.7319C217.986 86.3877 243.239 96.3374 248.069 94.7611C251.434 93.6623 248.501 90.6438 247.176 89.3063C241.694 83.7782 234.825 79.9216 227.17 76.0345C204.015 64.2754 179.926 60.2513 153.866 56.5926C152.063 56.3396 149.761 55.6356 147.939 55.8125ZM81.6006 46.3394C76.8181 46.8635 75.1224 50.9228 73.6545 54.0992C71.2272 59.3495 70.2395 65.5834 72.1535 71.0316C74.4923 77.6917 79.2005 79.9758 87.0073 80.8501C94.5806 81.6996 120.582 82.2647 128.703 82.2647C134.94 82.2647 147.069 82.3465 154.282 79.601C157.34 78.4366 161.117 76.2695 159.357 73.1273C158.744 72.0324 157.772 71.9001 156.673 71.3179C156.123 71.0268 148.64 65.0888 142.012 60.9239C128.37 52.3593 113.989 53.6169 98.3412 50.4633C88.4729 48.4741 85.1064 45.9531 81.6006 46.3394ZM315.967 61.0561C318.643 57.347 316.05 53.7606 311.6 52.1129C309.488 51.3319 307.248 50.8067 305.049 50.215C288.091 45.6582 285.396 49.5291 278.951 49.4035C277.993 49.3845 276.554 49.1971 276 48.4808C275.548 47.8986 276.365 46.7285 276.574 46.1358C277.236 44.2598 277.427 42.0737 275.104 40.8522C270.411 38.3826 263.731 43.5625 261.623 41.833C260.579 40.9768 261.073 38.9344 261.067 37.8366C261.05 35.1234 259.383 32.085 255.868 31.3734C249.043 29.9902 242.785 36.7292 239.44 34.8485C236.399 33.1352 245.158 27.8202 237.256 21.9173C234.26 19.6789 230.275 19.442 226.962 21.299C225.246 22.2627 222.008 24.6904 219.683 23.8314C216.411 22.6213 221.95 16.9049 217.292 13.541C210.124 8.36686 188.984 17.7944 183.544 24.8436C181.472 27.5263 181.02 31.2963 185.371 32.6548C193.309 35.1358 204.02 28.6117 210.533 27.9696C210.906 27.9325 212.184 28.1085 212.387 27.8107C212.643 27.434 211.56 27.0325 211.261 26.9288C205.388 24.8959 192.945 30.2147 187.763 29.3138C183.359 28.5537 194.403 19.2784 207.206 16.3655C217.109 14.1128 214.482 18.5716 214.112 20.4847C212.919 26.6929 219.042 30.0101 227.17 25.792C229.083 24.7979 230.84 23.076 233.201 24.211C234.36 24.7684 235.73 25.8149 235.974 26.9393C236.506 29.3889 231.63 33.9305 235.726 37.3191C243.272 43.5616 255.317 29.0369 256.406 37.8366C256.705 40.2605 255.922 42.8167 258.468 44.6965C262.951 48.0042 267.668 43.9563 272.401 43.9563C272.292 45.8609 270.679 47.4952 271.406 49.4882C272.225 51.7295 275.359 53.0366 278.119 53.0918C282.123 53.1707 285.729 52.0682 289.661 51.7657C294.832 51.3699 304.759 53.5969 309.625 55.5452C311.074 56.1255 312.843 56.9436 312.282 58.4581C311.167 61.4814 309.94 60.8383 308.065 60.6614C279.306 57.9263 279.219 58.8444 243.079 43.4712C210.897 29.7818 202.394 34.8333 189.634 35.8103C186.651 36.0395 183.558 35.7456 180.588 35.581C162.641 34.5907 158.061 36.518 147.835 36.1565C131.331 35.5743 117.024 29.4603 107.309 19.9814C102.947 15.7243 100.709 9.50368 94.806 9.50368C94.4602 8.59899 89.1738 7.02361 81.8838 20.6521C78.935 26.1659 76.385 33.939 81.649 39.0942C85.9029 43.2581 93.3085 44.3768 99.4858 45.5194C106.887 46.8892 114.105 48.7957 121.528 50.1104C140.284 53.4314 159.535 54.2486 178.3 57.5715C199.695 61.3596 232.924 72.2597 246.153 84.7799C253.01 91.2679 252.54 95.1254 254.832 96.7389C255.715 97.361 256.617 97.1812 257.635 97.4067C259.122 97.7368 260.451 98.222 262.002 98.4075C269.656 99.3207 277.023 96.3526 284.565 95.936C291.615 95.5469 298.358 97.7663 305.465 96.9948C315.925 95.8589 344.155 86.5456 353.815 83.2217C361.664 80.5219 368.875 77.3255 374.52 72.0381C376.767 69.9328 379.424 67.0209 378.843 64.0747C377.58 57.6714 364.11 62.7894 326.989 61.4795C323.394 61.353 319.507 61.586 315.967 61.0561ZM384.8 89.2226C385.754 87.4408 387.287 86.459 390.291 80.0852C390.805 78.995 391.79 77.3198 391.454 76.1458C389.701 77.5633 388.482 79.3851 387.044 81.0071C385.882 82.317 378.702 89.7001 377.106 90.6476C377.925 89.116 382.322 83.3539 381.993 81.594C376.589 86.9775 379.256 84.5944 369.931 92.243C362.817 97.401 363.988 96.7588 367.392 93.2457C367.807 92.8166 374.527 85.8644 374.923 84.8636C373.267 85.8035 374.375 85.4344 365.045 91.9652C349.284 103.002 342.417 107.588 327.821 110.692C322.787 111.762 319.459 106.496 314.407 107.593C311.041 108.326 309.408 111.204 306.194 112.206C301.695 113.609 290.038 113.854 285.19 113.95C282.612 114 279.284 114.331 277.079 113.035C274.554 111.551 273.191 108.301 269.488 108.51C265.939 108.711 264.044 112.495 259.715 114.093C256.937 115.119 253.868 115.125 250.876 115.125C241.577 115.125 236.415 115.125 232.265 112.618C226.443 109.104 222.207 102.93 213.861 103.571C203.962 104.331 190.962 111.369 176.948 114.67C169.452 116.436 166.87 116.214 118.097 116.214C109.216 116.214 93.5599 115.876 93.3498 115.82C92.4165 115.569 82.1174 109.28 78.319 105.653C67.4901 95.3109 69.1032 76.1087 69.8478 62.3975C70.564 49.2028 70.0059 27.3208 81.4071 10.845C87.3625 2.23853 91.5197 1.46321 101.148 8.65798C111.711 16.552 123.049 29.5183 140.14 30.1214C151.655 30.5277 162.839 26.0717 172.79 21.9316C177.601 19.9301 182.441 17.9903 187.035 15.671C197.241 10.5206 200.161 5.88299 207.102 6.41573C214.66 6.99603 217.527 11.392 229.457 16.355C250.473 25.0985 249.418 26.0641 260.027 31.3144C265.31 33.9286 270.963 35.9996 276.351 38.4587C284.647 42.2449 292.867 46.2671 302.034 48.5635C351.39 60.9315 367.229 48.7643 383.761 57.2043C387.53 59.1297 393.837 64.1974 395.465 67.6792C398.506 74.1728 394.81 80.5828 389.496 85.4497C388.09 86.7368 386.544 88.2322 384.8 89.2226ZM70.3717 102.634C66.1438 102.634 59.5228 103.239 57.9982 103.51C57.8 103.546 57.3209 103.63 57.4224 103.878C57.518 104.112 57.9605 104.125 58.2059 104.143C59.118 104.212 67.1043 105.16 70.5794 106.239C70.5794 106.545 49.3677 105.775 49.3677 107.078C53.6157 107.078 57.5663 108.318 61.7412 108.586C61.7412 109.013 34.2192 108.421 41.9856 109.319C43.699 109.517 65.0464 111.353 65.2765 111.353C65.2765 111.399 29.196 112.416 29.196 113.281C31.3772 113.7 33.8298 113.457 36.0588 113.536C69.8018 114.724 67.4016 115.544 79.001 115.544C77.8612 116.482 75.6947 115.08 43.6494 116.212C33.9934 116.554 11 116.543 11 117.053C12.6211 117.682 15.2485 117.465 17.0304 117.564C65.516 120.257 57.3681 119.485 77.7538 119.485V119.568C74.6917 119.568 71.5482 119.99 68.5002 120.225C46.2832 121.936 44.5332 121.271 43.6494 121.999C45.8914 122.43 48.6208 122.206 50.9277 122.252C91.8831 123.02 88.4351 122.251 115.914 122.251C115.914 122.709 116.477 121.435 92.1026 124.143C86.5507 124.76 84.6131 124.695 84.8609 125.345C84.9777 125.655 85.5406 125.679 85.8639 125.687C140.117 127.04 106.542 124.598 206.998 124.598C239.735 124.598 268.268 122.84 333.644 126.449C333.653 126.45 358.269 127.616 358.806 127.616C358.806 127.113 323.038 123.485 323.038 123.34C331.228 123.345 339.405 123.719 347.576 124.008C353.997 124.234 360.481 123.866 366.916 123.927C369.961 123.957 388.157 124.765 396.966 124.765C398.481 124.765 401.276 125.329 402.581 124.598C401.552 124.248 405.043 124.826 367.748 121.817C364.489 121.555 361.145 121.077 357.87 121.077V120.993C414.031 120.993 406.326 119.652 422.753 119.652C423.205 119.652 423.716 119.726 424 119.401C420.364 118.857 359.742 117.229 359.742 117.222C411.688 114.627 407.78 115.044 407.78 114.623C400.617 113.889 374.563 113.04 366.5 113.198C362.344 113.281 354.126 113.94 354.126 113.617C359.185 113.617 376.024 111.199 392.807 109.68C393.486 109.62 395.083 109.709 395.51 109.257C364.268 109.619 366.5 109.64 366.5 109.509C370.095 108.892 383.109 106.59 386.464 105.402C377.789 105.402 369.149 106.994 360.47 106.994C363.855 105.402 367.392 104.019 370.763 102.401C395.875 90.347 413.152 72.7934 391.143 57.1415C376.332 46.6067 362.785 51.1682 345.601 50.8296C328.472 50.4909 308.554 46.855 298.291 43.4873C291.473 41.2499 285.253 38.1933 278.847 35.3108C273.621 32.9592 268.168 30.9281 263.042 28.4319C250.828 22.4862 256.563 23.6687 230.602 12.624C222.265 9.07845 215.41 2.53438 205.334 2.63046C200.03 2.68183 196.105 5.48631 192.234 8.04343C184.633 13.0616 178.902 15.1316 172.269 17.9523C141.922 30.8616 132.413 27.8954 117.37 16.297C105.113 6.85046 97.2934 -1.78362 88.0481 0.318775C78.7521 2.43449 72.9146 16.2656 70.282 23.7543C66.034 35.8379 65.9467 48.222 65.2729 60.6385C64.6676 71.7793 63.6764 83.3634 66.7998 94.3368C67.627 97.2421 69.043 99.8753 70.3717 102.635" fill="#232323"/>
<path d="M18.7 156.5L17.8 169.3V176.8H27.4L36.9 175.8L36.1 183.3H17.8V190.3L19.2 210H8L9.4 190.2V169.2L8 149.5H41.9L41 157.7L29.8 156.5H18.7ZM77.5453 211.5C68.6786 211.5 61.7786 208.767 56.8453 203.3C51.912 197.767 49.4453 190.1 49.4453 180.3C49.4453 170.5 52.1453 162.667 57.5453 156.8C62.9453 150.933 70.112 148 79.0453 148C87.9786 148 94.912 150.733 99.8453 156.2C104.779 161.667 107.245 169.3 107.245 179.1C107.245 188.9 104.512 196.767 99.0453 202.7C93.6453 208.567 86.4786 211.5 77.5453 211.5ZM59.5453 180.3C59.5453 188.1 61.312 194.167 64.8453 198.5C68.3786 202.767 73.3453 204.9 79.7453 204.9C83.5453 204.9 87.2453 204.133 90.8453 202.6C92.5786 200.867 94.0453 197.767 95.2453 193.3C96.512 188.767 97.1453 184.133 97.1453 179.4C97.1453 171.333 95.3786 165.2 91.8453 161C88.3786 156.733 83.312 154.6 76.6453 154.6C72.8453 154.6 69.2453 155.367 65.8453 156.9C64.112 158.567 62.612 161.7 61.3453 166.3C60.1453 170.9 59.5453 175.567 59.5453 180.3ZM146.393 211.5C137.526 211.5 130.626 208.767 125.693 203.3C120.76 197.767 118.293 190.1 118.293 180.3C118.293 170.5 120.993 162.667 126.393 156.8C131.793 150.933 138.96 148 147.893 148C156.826 148 163.76 150.733 168.693 156.2C173.626 161.667 176.093 169.3 176.093 179.1C176.093 188.9 173.36 196.767 167.893 202.7C162.493 208.567 155.326 211.5 146.393 211.5ZM128.393 180.3C128.393 188.1 130.16 194.167 133.693 198.5C137.226 202.767 142.193 204.9 148.593 204.9C152.393 204.9 156.093 204.133 159.693 202.6C161.426 200.867 162.893 197.767 164.093 193.3C165.36 188.767 165.993 184.133 165.993 179.4C165.993 171.333 164.226 165.2 160.693 161C157.226 156.733 152.16 154.6 145.493 154.6C141.693 154.6 138.093 155.367 134.693 156.9C132.96 158.567 131.46 161.7 130.193 166.3C128.993 170.9 128.393 175.567 128.393 180.3ZM183.641 157.1L184.141 149.5H218.641L229.541 148.3L228.541 157.1L217.441 156.5H210.941L210.041 169.3V190.3L211.441 210H200.241L201.641 190.2V169.2L200.641 156.5H194.641L183.641 157.1ZM273.984 210.5L252.684 149.8L264.284 148.9L265.884 161.6L278.084 200L291.184 162L292.384 149.5H304.484L281.584 209.9L273.984 210.5ZM313.969 210L315.369 190.2V169.2L313.969 149.5H325.169L323.769 169.3V190.3L325.169 210H313.969ZM342.091 210L343.491 190.2V163.3L341.691 150.1L342.591 150C349.858 148.667 355.691 148 360.091 148C372.825 148 379.191 153.267 379.191 163.8C379.191 170.067 376.791 174.733 371.991 177.8C379.591 180.2 383.391 185.3 383.391 193.1C383.391 198.7 381.058 203.167 376.391 206.5C371.791 209.833 365.558 211.5 357.691 211.5C351.825 211.5 346.625 211 342.091 210ZM352.991 204.8C355.391 205.2 358.025 205.4 360.891 205.4C363.825 205.4 367.091 204.867 370.691 203.8C373.025 201.133 374.191 197.8 374.191 193.8C374.191 189.8 373.025 186.867 370.691 185C368.358 183.133 364.691 182.2 359.691 182.2H351.891V190.3L352.791 203.4L352.991 204.8ZM351.891 169.3V176.4H356.491C365.491 176.333 369.991 172.467 369.991 164.8C369.991 157.6 366.225 154 358.691 154C356.958 154 355.025 154.167 352.891 154.5L351.891 169.3ZM406.179 169.3V175.6H415.779L425.279 174.6L424.479 182.1H406.179V190.3L407.079 203H420.279L431.179 201.8L430.179 210.6L419.279 210H407.579L396.379 210.6L397.779 190.2V169.2L396.379 149.5H430.279L429.379 157.7L418.179 156.5H407.079L406.179 169.3Z" fill="#232323"/>
</svg>
